<svg width="695" height="723" viewBox="0 0 695 723" fill="none" xmlns="http://www.w3.org/2000/svg">
<path fill-rule="evenodd" clip-rule="evenodd" d="M344.882 1.71636C343.559 3.22982 343.344 17.3283 343.61 85.5834C344.014 189.935 342.404 282.16 339.909 297.419C335.647 323.491 330.206 336.464 318.349 348.831C308.962 358.623 295.54 365.148 277.786 368.553C266.969 370.628 260.198 370.961 217.043 371.55C171.863 372.166 168.385 372.35 167.189 374.201C166.162 375.793 166.356 376.507 168.156 377.776C170.009 379.081 177.176 379.362 208.735 379.364C265.026 379.37 280.722 381.264 300.763 390.467C317.189 398.01 329.25 411.48 335.846 429.654C340.906 443.588 341.832 453.55 342.405 500.188C342.92 542.107 343.074 544.69 345.176 546.684C346.844 548.266 347.928 548.528 349.505 547.728C351.456 546.737 351.663 543.701 352.371 505.45C353.18 461.833 354.719 444.849 359.076 431.444C367.171 406.539 383.934 391.401 410.771 384.759C427.454 380.631 444.141 379.431 485.383 379.395C526.484 379.359 528.99 379.062 528.033 374.339C527.618 372.289 525.833 372.188 478.923 371.54C421.594 370.749 413.877 369.796 395.285 361.215C372.754 350.817 361.261 333.563 356.019 302.266C353.506 287.262 352.177 217.528 352.067 94.8412C351.995 13.2048 351.79 3.16821 350.165 1.62506C347.855 -0.564831 346.863 -0.548324 344.882 1.71636ZM267.931 63.5822C219.366 73.6528 171.202 96.0236 130.545 127.395C70.7721 173.515 29.5423 234.275 11.1673 303.324C-7.47318 373.369 -2.64669 448.53 24.6648 513.548C54.9779 585.711 110.179 644.956 182.329 682.757C219.009 701.976 267.017 716.438 311.408 721.644C326.981 723.47 368.666 723.447 384.449 721.605C428.868 716.416 477.496 701.788 513.336 682.831C534.97 671.389 561.241 653.815 578.306 639.37C582.144 636.12 585.878 633.783 586.603 634.176C587.327 634.569 587.558 634.508 587.115 634.042C586.673 633.576 592.018 627.292 598.993 620.079C641.657 575.958 669.207 527.917 684.215 471.473C692.882 438.879 695.744 413.383 694.841 376.813C694.155 349.009 691.493 329.971 684.757 304.697C665.205 231.329 619.29 165.844 555.56 120.432C525.313 98.88 494.332 83.2032 462.127 73.1557C437.079 65.3409 405.104 58.5468 412.387 62.5857C413.837 63.3897 414.282 65.716 414.43 73.2503C414.549 79.2744 415.158 83.3649 416.056 84.1612C416.845 84.8618 425.056 87.77 434.302 90.6231C491.544 108.29 532.693 131.636 571.818 168.649C630.465 224.129 662.528 293.016 666.819 372.762C668.152 397.531 664.529 434.784 658.472 458.59L656.575 466.049L645.435 467.937C595.221 476.447 524.613 504.784 464.023 540.744C444.573 552.288 401.098 579.936 388.545 588.745C382.827 592.757 377.806 596.04 377.386 596.04C376.965 596.04 373.556 594.749 369.811 593.172C339.252 580.299 290.616 563.838 256.644 554.868C195.923 538.838 132.694 530.047 78.126 530.047H63.3486L60.8559 525.412C48.8969 503.173 38.0707 470.258 31.8112 437.106C29.3614 424.126 29.1156 419.662 29.1434 388.71C29.1713 358.462 29.4681 353 31.7741 340.315C39.5466 297.545 52.6788 262.916 74.3186 228.125C89.5401 203.655 118.213 171.544 141.559 152.821C178.205 123.434 213.985 104.828 266.393 87.9086C277.168 84.4307 277.567 84.1865 276.566 81.6887C275.903 80.0344 275.992 77.9897 276.811 76.0649C278.098 73.0391 278.879 61.4209 277.786 61.5771C277.467 61.6222 273.033 62.5252 267.931 63.5822ZM232.711 151.422C229.901 156.645 224.899 161.434 221.374 162.274C217.532 163.189 218.003 164.505 222.697 165.976C226.43 167.144 227.703 168.291 233.635 175.831L235.759 178.531L238.22 173.953C239.846 170.929 242.503 168.364 246.049 166.392C251.848 163.168 251.843 163.144 244.461 159.272C242.53 158.26 240.028 155.34 238.571 152.398C237.176 149.585 235.789 147.283 235.486 147.283C235.184 147.283 233.935 149.145 232.711 151.422ZM466.277 156.612C464.902 159.035 462.235 161.301 459.021 162.777L453.938 165.111L459.129 168.233C461.982 169.951 465.143 172.869 466.151 174.718C468.232 178.538 470.904 179.103 471.959 175.949C472.667 173.831 478.302 168.745 482.521 166.416C484.522 165.31 484.285 164.989 479.918 162.875C477.276 161.596 473.975 158.802 472.584 156.666C471.192 154.53 469.693 152.783 469.253 152.783C468.812 152.783 467.473 154.506 466.277 156.612ZM155.124 190.399C154.359 191.125 153.733 192.758 153.733 194.029C153.733 195.299 154.359 196.932 155.124 197.658C155.889 198.384 157.611 198.978 158.95 198.978C160.289 198.978 162.01 198.384 162.776 197.658C163.541 196.932 164.167 195.299 164.167 194.029C164.167 192.758 163.541 191.125 162.776 190.399C162.01 189.673 160.289 189.079 158.95 189.079C157.611 189.079 155.889 189.673 155.124 190.399ZM247.789 222.232L244.257 226.789L247.886 231.581C249.881 234.218 251.623 236.375 251.757 236.375C251.891 236.375 253.936 234.133 256.303 231.394L260.605 226.413L256.732 222.138C254.602 219.786 252.513 217.82 252.091 217.77C251.668 217.718 249.731 219.727 247.789 222.232ZM563.707 234.277C560.919 244.547 555.026 250.674 545.424 253.288C541.818 254.27 538.297 255.073 537.598 255.073C536.899 255.073 536.327 255.486 536.327 255.992C536.327 256.498 539.589 257.771 543.573 258.821C552.694 261.225 560.505 268.31 563.517 276.912C564.602 280.01 565.898 282.785 566.399 283.078C566.899 283.371 568.739 280.419 570.487 276.518C575.082 266.262 581.102 261.699 595.359 257.665C597.853 256.96 595.619 255.57 588.499 253.397C577.253 249.962 572.872 244.476 568.098 227.85C567.202 224.729 565.705 226.919 563.707 234.277ZM411.115 235.255C411.115 237.04 403.332 244.074 401.356 244.074C400.347 244.074 399.521 244.569 399.521 245.174C399.521 245.779 400.076 246.274 400.755 246.274C401.435 246.274 404.564 248.781 407.711 251.846C413.396 257.384 413.439 257.401 414.503 254.745C415.092 253.275 417.482 250.581 419.812 248.758L424.048 245.445L420.512 243.058C418.568 241.743 416.067 239.208 414.956 237.422C412.953 234.207 411.115 233.17 411.115 235.255ZM123.811 243.895C120.658 253.181 115.352 258.622 106.918 261.216C103.652 262.221 100.521 263.444 99.9571 263.934C99.3937 264.424 101.93 265.652 105.593 266.662C114.839 269.212 120.694 274.449 123.298 282.498C124.414 285.948 125.796 288.985 126.369 289.246C126.94 289.506 128.277 287.194 129.338 284.108C132.595 274.628 137.739 269.861 148.33 266.506C154.632 264.51 154.421 263.978 146.197 261.127C138.004 258.287 132.472 252.684 129.898 244.619C128.741 240.992 127.473 237.652 127.08 237.197C126.687 236.742 125.216 239.756 123.811 243.895ZM203.818 244.294C200.047 247.871 202.162 250.213 247.352 292.501C272.062 315.624 293.45 335.054 294.882 335.679C296.932 336.573 297.98 336.39 299.81 334.82C301.087 333.722 302.133 332.239 302.133 331.526C302.133 329.385 209.59 242.974 207.298 242.974C206.149 242.974 204.583 243.568 203.818 244.294ZM438.609 287.278C413.24 311.004 392.518 330.911 392.561 331.516C392.718 333.741 395.786 336.465 398.136 336.465C399.636 336.465 404.431 332.768 410.762 326.733C416.376 321.38 437.273 302.012 457.2 283.691C477.127 265.371 493.43 249.557 493.43 248.547C493.43 245.887 491.081 244.07 487.691 244.107C485.377 244.133 474.718 253.509 438.609 287.278ZM287.82 254.885C285.107 257.729 285.437 260.232 288.8 262.323C291.485 263.992 291.912 263.992 294.597 262.323C298.185 260.093 298.321 256.846 294.918 254.586C291.58 252.367 290.165 252.427 287.82 254.885ZM498.811 301.318C497.625 306.945 493.535 311.243 486.582 314.172L480.097 316.905L485.894 319.07C492.903 321.69 495.306 323.635 498.215 329.041C499.435 331.31 500.814 333.148 501.279 333.126C501.745 333.104 503.169 331 504.444 328.451C506.267 324.808 508.19 323.109 513.426 320.517C517.091 318.702 520.091 316.945 520.093 316.613C520.095 316.281 518.245 315.374 515.981 314.597C510.636 312.763 504.596 306.978 503.197 302.351C501.737 297.521 499.712 297.044 498.811 301.318ZM77.2611 311.059C75.6461 314.758 72.2735 317.904 67.3914 320.266L63.9468 321.933L67.971 323.558C72.5483 325.406 76.5759 329.253 77.7376 332.89C78.8657 336.417 80.1827 335.973 83.0731 331.095C84.4655 328.744 87.6329 325.743 90.1198 324.417C94.2367 322.221 95.2083 319.967 92.0362 319.967C89.6062 319.967 83.3409 314.581 81.8801 311.235C80.0471 307.036 79.0338 306.998 77.2611 311.059ZM606.509 319.496C605.543 321.689 604.244 323.11 603.567 322.714C602.9 322.323 602.498 322.63 602.673 323.395C602.848 324.161 601.037 325.806 598.647 327.051C596.258 328.297 594.301 329.587 594.3 329.92C594.297 330.252 596.169 331.166 598.457 331.951C601.086 332.853 603.943 335.163 606.216 338.222C608.195 340.886 610.139 343.065 610.536 343.065C610.933 343.065 612.119 341.351 613.172 339.257C614.36 336.892 616.829 334.605 619.684 333.223C625.361 330.475 626.327 329.133 623.291 328.219C619.573 327.1 614.435 322.505 612.856 318.889C610.927 314.473 608.625 314.693 606.509 319.496ZM192.647 330.886C188.404 335.334 194.277 341.48 199.606 338.168C203.05 336.027 203.366 331.52 200.184 329.904C196.907 328.241 194.924 328.499 192.647 330.886ZM353.624 352.814C356.032 357.19 363.771 365.358 368.6 368.621C370.484 369.893 374.872 372.032 378.352 373.374L384.677 375.813L378.934 377.622C366.027 381.69 355.605 391.145 350.911 403.047C349.59 406.399 348.508 409.617 348.508 410.2C348.508 410.782 347.986 411.258 347.349 411.258C346.711 411.258 346.189 410.215 346.189 408.941C346.189 404.102 339.343 392.994 332.613 386.911C326.633 381.507 322.177 379.174 312.587 376.426C311.626 376.15 313.728 374.831 317.349 373.434C331.342 368.039 340.585 358.426 344.962 344.714C345.734 342.295 346.633 339.572 346.96 338.665C347.298 337.731 348.43 339.641 349.572 343.065C350.681 346.392 352.506 350.779 353.624 352.814ZM112.241 384.173C108.668 405.975 98.0928 417.273 77.5034 421.286C73.5186 422.062 70.2573 422.98 70.2573 423.326C70.2573 423.673 73.7795 424.578 78.0831 425.34C98.6285 428.975 107.951 438.497 112.155 460.141C112.925 464.107 113.896 467.353 114.314 467.353C114.731 467.353 115.679 464.226 116.423 460.402C118.398 450.226 121.669 441.558 125.181 437.191C129.048 432.38 140.991 426.834 150.98 425.211C155.045 424.55 158.37 423.682 158.37 423.283C158.37 422.883 156.095 422.26 153.315 421.898C146.29 420.986 136.276 417.27 130.924 413.592C128.248 411.753 124.957 407.862 122.812 404.003C119.308 397.696 115.473 384.564 115.473 378.869C115.473 373.132 113.526 376.328 112.241 384.173ZM536.395 410.865C533.354 417.574 529.116 421.694 523.297 423.605C520.95 424.376 519.073 425.502 519.124 426.107C519.175 426.712 521.794 428.118 524.945 429.234C530.547 431.216 537.487 438.061 537.487 441.605C537.487 445.033 539.801 443.859 542.159 439.236C544.808 434.045 550.566 429.585 556.337 428.251C561.415 427.079 561.131 425.851 555.209 423.366C547.862 420.283 544.647 417.308 541.539 410.719L538.95 405.231L536.395 410.865ZM256.511 453.879C211.282 496.319 202.426 505.053 202.426 507.212C202.426 509.544 205.342 511.586 208.061 511.158C209.317 510.96 230.736 491.799 255.659 468.578C293.587 433.24 300.974 425.864 300.974 423.325C300.974 420.351 299.232 418.957 295.516 418.957C294.532 418.957 276.98 434.673 256.511 453.879ZM394.452 420.638C394.051 421.628 393.724 423.074 393.724 423.852C393.724 426.23 483.943 510.761 486.87 511.125C488.38 511.314 490.394 510.509 491.615 509.229C493.549 507.202 493.58 506.778 491.964 504.439C490.989 503.027 470.276 483.34 445.936 460.69C411.79 428.912 400.941 419.431 398.431 419.173C396.257 418.95 394.938 419.435 394.452 420.638ZM596.592 422.299C594.928 425.248 596.198 428.776 599.326 429.898C604.632 431.8 608.988 426.112 605.235 422.178C602.583 419.399 598.193 419.46 596.592 422.299ZM212.207 422.807C210.417 427.268 206.75 431.163 202.329 433.303C199.832 434.512 197.807 435.862 197.831 436.303C197.854 436.745 200.071 438.095 202.757 439.305C205.443 440.515 208.846 443.238 210.321 445.355C211.794 447.472 213.361 449.327 213.8 449.476C214.24 449.626 215.643 447.901 216.919 445.644C218.323 443.158 221.223 440.502 224.273 438.909L229.308 436.278L224.886 433.926C220.937 431.824 219.043 429.785 214.425 422.665C213.133 420.673 213.063 420.677 212.207 422.807ZM456.992 427.285C454.515 429.636 454.704 432.515 457.494 434.91C459.423 436.567 460.314 436.69 462.744 435.639C466.658 433.948 467.416 431.613 465.126 428.298C462.966 425.171 459.656 424.758 456.992 427.285ZM507.867 463.429C504.632 468.113 510.002 473.422 515.27 470.748C518.269 469.225 519.042 465.784 517.004 463.025C514.706 459.913 510.157 460.114 507.867 463.429ZM158.445 493.384C153.917 496.393 156.171 501.449 162.04 501.449C165.956 501.449 168.311 498.086 166.563 494.988C164.98 492.18 161.339 491.461 158.445 493.384ZM405.432 499.912C404.397 502.63 402.335 504.786 398.86 506.786C396.075 508.388 393.784 509.946 393.769 510.249C393.754 510.551 395.847 511.939 398.419 513.333C401.132 514.803 403.896 517.458 405.001 519.657C406.975 523.585 408.796 524.634 408.796 521.844C408.796 520.082 416.167 512.593 419.748 510.716C421.818 509.631 421.601 509.317 417.131 506.934C413.962 505.244 411.549 502.877 410.236 500.17C409.125 497.88 407.93 495.994 407.58 495.979C407.229 495.963 406.264 497.733 405.432 499.912ZM643.547 503.264C637.966 517.329 623.485 545.375 619.924 549.011C619.485 549.46 610.8 551.779 600.624 554.163C551.537 565.665 506.994 582.297 459.325 606.924C448.664 612.432 439.433 616.938 438.813 616.938C437.786 616.938 412.145 607.2 411.356 606.509C411.169 606.347 416.125 602.766 422.37 598.553C487.999 554.268 551.046 522.368 607.049 505.111C615.279 502.575 641.914 496.203 645.009 496.03C645.996 495.975 645.537 498.247 643.547 503.264ZM266.125 507.879C264.14 509.404 263.703 510.556 264.282 512.74C265.611 517.769 272.532 517.914 273.848 512.94C275.167 507.95 270.238 504.719 266.125 507.879ZM123.647 558.708C132.224 559.348 150.796 561.563 164.918 563.63C203.754 569.312 225.589 574.052 265.033 585.358C287.339 591.753 288.515 592.221 284.163 592.963C281.612 593.398 273.004 594.782 265.033 596.037C225.823 602.21 192.897 611.668 160.268 626.134L149.401 630.951L135.625 619.196C116.564 602.929 97.2013 582.061 82.9966 562.475L79.421 557.544H93.7371C101.612 557.544 115.071 558.068 123.647 558.708ZM590.655 588.616C577.971 604.069 542.566 634.106 520.096 648.475L514.879 651.812L493.712 641.665C477.912 634.093 472.919 631.225 474.018 630.359C479.424 626.103 521.148 607.527 545.023 598.746C555.26 594.981 588.464 585.012 594.104 584.011C594.317 583.973 592.765 586.046 590.655 588.616ZM340.937 619.828C346.211 621.748 274.091 660.77 241.711 673.518L234.04 676.537L217.222 668.883C207.973 664.673 195.325 658.393 189.117 654.926L177.828 648.623L189.257 643.956C218.954 631.833 245.975 625.378 289.959 619.901C295.899 619.161 338.937 619.1 340.937 619.828ZM408.796 635.1C432.671 644.015 450.016 651.316 470.743 661.172L484.635 667.779L474.83 671.532C439.139 685.195 400.525 693.855 365.521 696.049C338.735 697.726 302.454 694.914 279.825 689.408L275.488 688.352L287.941 682.195C315.342 668.648 333.088 658.352 364.739 637.636C377.643 629.191 383.364 626.047 385.028 626.482C386.304 626.817 396.999 630.695 408.796 635.1Z" fill="black"/>
</svg>
